<mxfile host="app.diagrams.net" agent="Mozilla/5.0 (Macintosh; Intel Mac OS X 10_15_7) AppleWebKit/537.36 (KHTML, like Gecko) Chrome/128.0.0.0 Safari/537.36" version="24.7.10">
  <diagram id="1CRUhb7KtWk_jxI4YGjq" name="Page-1">
    <mxGraphModel grid="1" page="1" gridSize="10" guides="1" tooltips="1" connect="1" arrows="1" fold="1" pageScale="1" pageWidth="850" pageHeight="1100" background="none" math="0" shadow="0">
      <root>
        <mxCell id="0" />
        <mxCell id="1" parent="0" />
        <mxCell id="xERo2qP1K6_lj_SJqDYF-115" value="&lt;font style=&quot;font-size: 21px;&quot;&gt;SUM Macro&lt;/font&gt;" style="rounded=0;whiteSpace=wrap;html=1;fillColor=#f5f5f5;fontColor=#333333;strokeColor=#666666;" vertex="1" parent="1">
          <mxGeometry x="1250" y="163" width="125" height="57" as="geometry" />
        </mxCell>
        <mxCell id="xERo2qP1K6_lj_SJqDYF-116" value="BERT Base" style="rounded=1;whiteSpace=wrap;html=1;fontSize=19;fillColor=#fad7ac;strokeColor=#b46504;strokeWidth=2;" vertex="1" parent="1">
          <mxGeometry x="930" y="10" width="120" height="60" as="geometry" />
        </mxCell>
        <mxCell id="xERo2qP1K6_lj_SJqDYF-117" value="BERT Large" style="rounded=1;whiteSpace=wrap;html=1;fontSize=19;fillColor=#fad7ac;strokeColor=#b46504;strokeWidth=3;" vertex="1" parent="1">
          <mxGeometry x="1060" y="10" width="120" height="60" as="geometry" />
        </mxCell>
        <mxCell id="xERo2qP1K6_lj_SJqDYF-118" value="RoBERTa Base" style="rounded=1;whiteSpace=wrap;html=1;fontSize=19;fillColor=#b0e3e6;strokeColor=#0e8088;strokeWidth=2;" vertex="1" parent="1">
          <mxGeometry x="1190" y="10" width="120" height="60" as="geometry" />
        </mxCell>
        <mxCell id="xERo2qP1K6_lj_SJqDYF-119" value="RoBERTa Large" style="rounded=1;whiteSpace=wrap;html=1;fontSize=19;fillColor=#b0e3e6;strokeColor=#0e8088;strokeWidth=3;" vertex="1" parent="1">
          <mxGeometry x="1320" y="10" width="120" height="60" as="geometry" />
        </mxCell>
        <mxCell id="xERo2qP1K6_lj_SJqDYF-120" value="DeBERTa Base" style="rounded=1;whiteSpace=wrap;html=1;fontSize=19;fillColor=#b1ddf0;strokeColor=#10739e;strokeWidth=2;" vertex="1" parent="1">
          <mxGeometry x="1450" y="10" width="120" height="60" as="geometry" />
        </mxCell>
        <mxCell id="xERo2qP1K6_lj_SJqDYF-121" value="DeBERTa Large" style="rounded=1;whiteSpace=wrap;html=1;fontSize=19;fillColor=#b1ddf0;strokeColor=#10739e;strokeWidth=3;" vertex="1" parent="1">
          <mxGeometry x="1580" y="10" width="120" height="60" as="geometry" />
        </mxCell>
        <mxCell id="xERo2qP1K6_lj_SJqDYF-122" value="F1" style="endArrow=classic;html=1;rounded=0;exitX=0.5;exitY=1;exitDx=0;exitDy=0;entryX=0.032;entryY=-0.039;entryDx=0;entryDy=0;entryPerimeter=0;fontSize=16;fontColor=#808080;strokeColor=#4D9900;" edge="1" parent="1" target="xERo2qP1K6_lj_SJqDYF-115">
          <mxGeometry x="0.0649" y="-2" width="50" height="50" relative="1" as="geometry">
            <mxPoint x="990" y="70.00000000000011" as="sourcePoint" />
            <mxPoint x="1200.75" y="172.11000000000013" as="targetPoint" />
            <mxPoint as="offset" />
          </mxGeometry>
        </mxCell>
        <mxCell id="xERo2qP1K6_lj_SJqDYF-123" value="F1" style="endArrow=classic;html=1;rounded=0;exitX=0.5;exitY=1;exitDx=0;exitDy=0;fontSize=16;fontColor=#808080;entryX=1;entryY=0;entryDx=0;entryDy=0;strokeColor=#4D9900;" edge="1" parent="1" source="xERo2qP1K6_lj_SJqDYF-121" target="xERo2qP1K6_lj_SJqDYF-115">
          <mxGeometry x="0.0587" y="1" width="50" height="50" relative="1" as="geometry">
            <mxPoint x="1743" y="206" as="sourcePoint" />
            <mxPoint x="1430" y="161" as="targetPoint" />
            <mxPoint as="offset" />
          </mxGeometry>
        </mxCell>
        <mxCell id="xERo2qP1K6_lj_SJqDYF-124" value="F1" style="endArrow=classic;html=1;rounded=0;exitX=0.5;exitY=1;exitDx=0;exitDy=0;fontSize=16;fontColor=#808080;entryX=0.25;entryY=0;entryDx=0;entryDy=0;strokeColor=#4D9900;" edge="1" parent="1" target="xERo2qP1K6_lj_SJqDYF-115">
          <mxGeometry x="0.013" y="-3" width="50" height="50" relative="1" as="geometry">
            <mxPoint x="1120" y="70.00000000000011" as="sourcePoint" />
            <mxPoint x="1234" y="171" as="targetPoint" />
            <mxPoint as="offset" />
          </mxGeometry>
        </mxCell>
        <mxCell id="xERo2qP1K6_lj_SJqDYF-125" value="F1" style="endArrow=classic;html=1;rounded=0;exitX=0.5;exitY=1;exitDx=0;exitDy=0;fontSize=16;fontColor=#808080;entryX=0.824;entryY=-0.005;entryDx=0;entryDy=0;entryPerimeter=0;strokeColor=#4D9900;" edge="1" parent="1" target="xERo2qP1K6_lj_SJqDYF-115">
          <mxGeometry x="0.0478" y="2" width="50" height="50" relative="1" as="geometry">
            <mxPoint x="1513" y="70.00000000000011" as="sourcePoint" />
            <mxPoint x="1390" y="160" as="targetPoint" />
            <mxPoint as="offset" />
          </mxGeometry>
        </mxCell>
        <mxCell id="xERo2qP1K6_lj_SJqDYF-126" value="F1" style="endArrow=classic;html=1;rounded=0;exitX=0.5;exitY=1;exitDx=0;exitDy=0;entryX=0.412;entryY=-0.022;entryDx=0;entryDy=0;entryPerimeter=0;fontSize=16;fontColor=#808080;strokeColor=#4D9900;" edge="1" parent="1" source="xERo2qP1K6_lj_SJqDYF-118" target="xERo2qP1K6_lj_SJqDYF-115">
          <mxGeometry x="0.108" y="2" width="50" height="50" relative="1" as="geometry">
            <mxPoint x="1140" y="90" as="sourcePoint" />
            <mxPoint x="1263" y="190" as="targetPoint" />
            <mxPoint as="offset" />
          </mxGeometry>
        </mxCell>
        <mxCell id="xERo2qP1K6_lj_SJqDYF-127" value="F1" style="endArrow=classic;html=1;rounded=0;exitX=0.5;exitY=1;exitDx=0;exitDy=0;entryX=0.582;entryY=-0.026;entryDx=0;entryDy=0;entryPerimeter=0;fontSize=16;fontColor=#808080;strokeColor=#4D9900;" edge="1" parent="1" source="xERo2qP1K6_lj_SJqDYF-119" target="xERo2qP1K6_lj_SJqDYF-115">
          <mxGeometry x="0.0801" y="1" width="50" height="50" relative="1" as="geometry">
            <mxPoint x="1150" y="100" as="sourcePoint" />
            <mxPoint x="1340" y="160" as="targetPoint" />
            <mxPoint as="offset" />
          </mxGeometry>
        </mxCell>
        <mxCell id="xERo2qP1K6_lj_SJqDYF-128" value="&lt;div style=&quot;font-size: 19px;&quot;&gt;Result &amp;gt; 0.2?&lt;/div&gt;" style="rhombus;whiteSpace=wrap;html=1;fontSize=19;fillColor=#f5f5f5;fontColor=#333333;strokeColor=#666666;labelPosition=center;verticalLabelPosition=middle;align=center;verticalAlign=middle;" vertex="1" parent="1">
          <mxGeometry x="1222.5" y="510" width="180" height="90" as="geometry" />
        </mxCell>
        <mxCell id="xERo2qP1K6_lj_SJqDYF-130" value="&lt;font style=&quot;font-size: 21px;&quot;&gt;1&lt;/font&gt;" style="rounded=0;whiteSpace=wrap;html=1;fillColor=#bac8d3;strokeColor=#23445d;fontSize=21;" vertex="1" parent="1">
          <mxGeometry x="1227.5" y="640" width="35" height="40" as="geometry" />
        </mxCell>
        <mxCell id="xERo2qP1K6_lj_SJqDYF-131" value="&lt;font style=&quot;font-size: 21px;&quot;&gt;0&lt;/font&gt;" style="rounded=0;whiteSpace=wrap;html=1;fillColor=#bac8d3;strokeColor=#23445d;fontSize=21;" vertex="1" parent="1">
          <mxGeometry x="1352.5" y="640" width="35" height="40" as="geometry" />
        </mxCell>
        <mxCell id="xERo2qP1K6_lj_SJqDYF-132" value="yes" style="endArrow=classic;html=1;rounded=0;exitX=0.5;exitY=1;exitDx=0;exitDy=0;entryX=0.5;entryY=0;entryDx=0;entryDy=0;fontSize=15;" edge="1" parent="1" source="xERo2qP1K6_lj_SJqDYF-128" target="xERo2qP1K6_lj_SJqDYF-130">
          <mxGeometry width="50" height="50" relative="1" as="geometry">
            <mxPoint x="1312.5" y="480" as="sourcePoint" />
            <mxPoint x="1252.5" y="610" as="targetPoint" />
          </mxGeometry>
        </mxCell>
        <mxCell id="xERo2qP1K6_lj_SJqDYF-133" value="no" style="endArrow=classic;html=1;rounded=0;entryX=0.5;entryY=0;entryDx=0;entryDy=0;fontSize=15;" edge="1" parent="1" target="xERo2qP1K6_lj_SJqDYF-131">
          <mxGeometry width="50" height="50" relative="1" as="geometry">
            <mxPoint x="1312.5" y="600" as="sourcePoint" />
            <mxPoint x="1262.5" y="620" as="targetPoint" />
          </mxGeometry>
        </mxCell>
        <mxCell id="xERo2qP1K6_lj_SJqDYF-135" value="&lt;font style=&quot;font-size: 18px;&quot;&gt;X&lt;/font&gt;" style="rounded=0;whiteSpace=wrap;html=1;fillColor=#f5f5f5;fontColor=#333333;strokeColor=#666666;fontSize=18;" vertex="1" parent="1">
          <mxGeometry x="1420" y="160" width="65" height="57" as="geometry" />
        </mxCell>
        <mxCell id="xERo2qP1K6_lj_SJqDYF-136" value="&lt;font style=&quot;font-size: 18px;&quot;&gt;X&lt;/font&gt;" style="rounded=0;whiteSpace=wrap;html=1;fillColor=#f5f5f5;fontColor=#333333;strokeColor=#666666;fontSize=18;" vertex="1" parent="1">
          <mxGeometry x="1630" y="160" width="65" height="57" as="geometry" />
        </mxCell>
        <mxCell id="xERo2qP1K6_lj_SJqDYF-137" value="&lt;font style=&quot;font-size: 18px;&quot;&gt;X&lt;/font&gt;" style="rounded=0;whiteSpace=wrap;html=1;fillColor=#f5f5f5;fontColor=#333333;strokeColor=#666666;fontSize=18;" vertex="1" parent="1">
          <mxGeometry x="1530" y="160" width="65" height="57" as="geometry" />
        </mxCell>
        <mxCell id="xERo2qP1K6_lj_SJqDYF-138" value="&lt;font style=&quot;font-size: 18px;&quot;&gt;X&lt;/font&gt;" style="rounded=0;whiteSpace=wrap;html=1;fillColor=#f5f5f5;fontColor=#333333;strokeColor=#666666;fontSize=18;" vertex="1" parent="1">
          <mxGeometry x="934" y="163" width="65" height="57" as="geometry" />
        </mxCell>
        <mxCell id="xERo2qP1K6_lj_SJqDYF-139" value="&lt;font style=&quot;font-size: 18px;&quot;&gt;X&lt;/font&gt;" style="rounded=0;whiteSpace=wrap;html=1;fillColor=#f5f5f5;fontColor=#333333;strokeColor=#666666;fontSize=18;" vertex="1" parent="1">
          <mxGeometry x="1144" y="163" width="65" height="57" as="geometry" />
        </mxCell>
        <mxCell id="xERo2qP1K6_lj_SJqDYF-140" value="&lt;font style=&quot;font-size: 18px;&quot;&gt;X&lt;/font&gt;" style="rounded=0;whiteSpace=wrap;html=1;fillColor=#f5f5f5;fontColor=#333333;strokeColor=#666666;fontSize=18;" vertex="1" parent="1">
          <mxGeometry x="1044" y="163" width="65" height="57" as="geometry" />
        </mxCell>
        <mxCell id="xERo2qP1K6_lj_SJqDYF-142" value="" style="endArrow=classic;html=1;rounded=0;exitX=0.5;exitY=1;exitDx=0;exitDy=0;entryX=0.5;entryY=0;entryDx=0;entryDy=0;dashed=1;dashPattern=1 1;fontSize=16;fontColor=#808080;" edge="1" parent="1" source="xERo2qP1K6_lj_SJqDYF-116" target="xERo2qP1K6_lj_SJqDYF-138">
          <mxGeometry width="50" height="50" relative="1" as="geometry">
            <mxPoint x="850" y="360" as="sourcePoint" />
            <mxPoint x="900" y="310" as="targetPoint" />
          </mxGeometry>
        </mxCell>
        <mxCell id="xERo2qP1K6_lj_SJqDYF-144" value="&lt;font style=&quot;font-size: 16px;&quot;&gt;Prob.&lt;/font&gt;" style="edgeLabel;html=1;align=center;verticalAlign=middle;resizable=0;points=[];fontSize=16;fontColor=#808080;" connectable="0" vertex="1" parent="xERo2qP1K6_lj_SJqDYF-142">
          <mxGeometry x="0.1042" y="2" relative="1" as="geometry">
            <mxPoint x="-9" y="18" as="offset" />
          </mxGeometry>
        </mxCell>
        <mxCell id="xERo2qP1K6_lj_SJqDYF-143" value="" style="endArrow=classic;html=1;rounded=0;exitX=0.5;exitY=1;exitDx=0;exitDy=0;dashed=1;dashPattern=1 1;fontSize=16;fontColor=#808080;" edge="1" parent="1" source="xERo2qP1K6_lj_SJqDYF-117">
          <mxGeometry width="50" height="50" relative="1" as="geometry">
            <mxPoint x="1000" y="80" as="sourcePoint" />
            <mxPoint x="1077" y="160" as="targetPoint" />
          </mxGeometry>
        </mxCell>
        <mxCell id="xERo2qP1K6_lj_SJqDYF-145" value="Prob." style="edgeLabel;html=1;align=center;verticalAlign=middle;resizable=0;points=[];fontColor=#808080;fontSize=16;" connectable="0" vertex="1" parent="xERo2qP1K6_lj_SJqDYF-143">
          <mxGeometry x="0.055" relative="1" as="geometry">
            <mxPoint x="-12" y="21" as="offset" />
          </mxGeometry>
        </mxCell>
        <mxCell id="xERo2qP1K6_lj_SJqDYF-146" value="Prob." style="endArrow=classic;html=1;rounded=0;entryX=0.5;entryY=0;entryDx=0;entryDy=0;exitX=0.5;exitY=1;exitDx=0;exitDy=0;dashed=1;dashPattern=1 1;fontSize=16;fontColor=#808080;" edge="1" parent="1" source="xERo2qP1K6_lj_SJqDYF-118" target="xERo2qP1K6_lj_SJqDYF-139">
          <mxGeometry x="0.5539" y="-3" width="50" height="50" relative="1" as="geometry">
            <mxPoint x="1260" y="100" as="sourcePoint" />
            <mxPoint x="1210" y="150" as="targetPoint" />
            <Array as="points">
              <mxPoint x="1210" y="120" />
            </Array>
            <mxPoint y="-1" as="offset" />
          </mxGeometry>
        </mxCell>
        <mxCell id="xERo2qP1K6_lj_SJqDYF-147" value="Prob." style="endArrow=classic;html=1;rounded=0;exitX=0.5;exitY=1;exitDx=0;exitDy=0;entryX=0.5;entryY=0;entryDx=0;entryDy=0;dashed=1;dashPattern=1 1;fontSize=16;fontColor=#808080;" edge="1" parent="1" source="xERo2qP1K6_lj_SJqDYF-119" target="xERo2qP1K6_lj_SJqDYF-135">
          <mxGeometry x="0.4862" y="-5" width="50" height="50" relative="1" as="geometry">
            <mxPoint x="1210" y="150" as="sourcePoint" />
            <mxPoint x="1260" y="100" as="targetPoint" />
            <mxPoint as="offset" />
          </mxGeometry>
        </mxCell>
        <mxCell id="xERo2qP1K6_lj_SJqDYF-148" value="Prob." style="endArrow=classic;html=1;rounded=0;exitX=0.5;exitY=1;exitDx=0;exitDy=0;entryX=0.5;entryY=0;entryDx=0;entryDy=0;dashed=1;dashPattern=1 1;fontSize=16;fontColor=#808080;" edge="1" parent="1" source="xERo2qP1K6_lj_SJqDYF-120" target="xERo2qP1K6_lj_SJqDYF-137">
          <mxGeometry x="0.5475" y="-1" width="50" height="50" relative="1" as="geometry">
            <mxPoint x="1390" y="80" as="sourcePoint" />
            <mxPoint x="1463" y="170" as="targetPoint" />
            <mxPoint as="offset" />
          </mxGeometry>
        </mxCell>
        <mxCell id="xERo2qP1K6_lj_SJqDYF-149" value="Prob." style="endArrow=classic;html=1;rounded=0;exitX=0.5;exitY=1;exitDx=0;exitDy=0;entryX=0.5;entryY=0;entryDx=0;entryDy=0;dashed=1;dashPattern=1 1;fontSize=16;fontColor=#808080;" edge="1" parent="1" source="xERo2qP1K6_lj_SJqDYF-121" target="xERo2qP1K6_lj_SJqDYF-136">
          <mxGeometry x="0.5686" y="2" width="50" height="50" relative="1" as="geometry">
            <mxPoint x="1520" y="80" as="sourcePoint" />
            <mxPoint x="1573" y="170" as="targetPoint" />
            <mxPoint as="offset" />
          </mxGeometry>
        </mxCell>
        <mxCell id="xERo2qP1K6_lj_SJqDYF-150" value="F1" style="endArrow=classic;html=1;rounded=0;exitX=0.75;exitY=1;exitDx=0;exitDy=0;fontSize=13;fontColor=#808080;entryX=0.75;entryY=0;entryDx=0;entryDy=0;strokeColor=#4D9900;" edge="1" parent="1" source="xERo2qP1K6_lj_SJqDYF-121" target="xERo2qP1K6_lj_SJqDYF-136">
          <mxGeometry x="-0.5597" y="-2" width="50" height="50" relative="1" as="geometry">
            <mxPoint x="1650" y="80" as="sourcePoint" />
            <mxPoint x="1385" y="173" as="targetPoint" />
            <mxPoint as="offset" />
          </mxGeometry>
        </mxCell>
        <mxCell id="xERo2qP1K6_lj_SJqDYF-151" value="F1" style="endArrow=classic;html=1;rounded=0;exitX=0.75;exitY=1;exitDx=0;exitDy=0;fontSize=13;fontColor=#808080;entryX=0.75;entryY=0;entryDx=0;entryDy=0;strokeColor=#4D9900;" edge="1" parent="1" source="xERo2qP1K6_lj_SJqDYF-120" target="xERo2qP1K6_lj_SJqDYF-137">
          <mxGeometry x="-0.5443" y="1" width="50" height="50" relative="1" as="geometry">
            <mxPoint x="1660" y="90" as="sourcePoint" />
            <mxPoint x="1395" y="183" as="targetPoint" />
            <mxPoint as="offset" />
          </mxGeometry>
        </mxCell>
        <mxCell id="xERo2qP1K6_lj_SJqDYF-152" value="F1" style="endArrow=classic;html=1;rounded=0;exitX=0.75;exitY=1;exitDx=0;exitDy=0;fontSize=13;fontColor=#808080;entryX=1;entryY=0;entryDx=0;entryDy=0;strokeColor=#4D9900;" edge="1" parent="1" source="xERo2qP1K6_lj_SJqDYF-119" target="xERo2qP1K6_lj_SJqDYF-135">
          <mxGeometry x="-0.5191" y="3" width="50" height="50" relative="1" as="geometry">
            <mxPoint x="1670" y="100" as="sourcePoint" />
            <mxPoint x="1405" y="193" as="targetPoint" />
            <mxPoint as="offset" />
          </mxGeometry>
        </mxCell>
        <mxCell id="xERo2qP1K6_lj_SJqDYF-153" value="F1" style="endArrow=classic;html=1;rounded=0;exitX=0.25;exitY=1;exitDx=0;exitDy=0;fontSize=13;fontColor=#808080;entryX=0.25;entryY=0;entryDx=0;entryDy=0;strokeColor=#4D9900;" edge="1" parent="1" source="xERo2qP1K6_lj_SJqDYF-118" target="xERo2qP1K6_lj_SJqDYF-139">
          <mxGeometry x="-0.5978" y="2" width="50" height="50" relative="1" as="geometry">
            <mxPoint x="1680" y="110" as="sourcePoint" />
            <mxPoint x="1415" y="203" as="targetPoint" />
            <mxPoint as="offset" />
          </mxGeometry>
        </mxCell>
        <mxCell id="xERo2qP1K6_lj_SJqDYF-154" value="F1" style="endArrow=classic;html=1;rounded=0;exitX=0.25;exitY=1;exitDx=0;exitDy=0;fontSize=13;fontColor=#808080;strokeColor=#4D9900;entryX=0.25;entryY=0;entryDx=0;entryDy=0;" edge="1" parent="1" source="xERo2qP1K6_lj_SJqDYF-117" target="xERo2qP1K6_lj_SJqDYF-140">
          <mxGeometry x="-0.6098" y="6" width="50" height="50" relative="1" as="geometry">
            <mxPoint x="1690" y="120" as="sourcePoint" />
            <mxPoint x="1044" y="163" as="targetPoint" />
            <mxPoint as="offset" />
          </mxGeometry>
        </mxCell>
        <mxCell id="xERo2qP1K6_lj_SJqDYF-155" value="F1" style="endArrow=classic;html=1;rounded=0;exitX=0.25;exitY=1;exitDx=0;exitDy=0;fontSize=13;fontColor=#808080;strokeColor=#4D9900;entryX=0.25;entryY=0;entryDx=0;entryDy=0;" edge="1" parent="1" source="xERo2qP1K6_lj_SJqDYF-116" target="xERo2qP1K6_lj_SJqDYF-138">
          <mxGeometry x="-0.5746" y="2" width="50" height="50" relative="1" as="geometry">
            <mxPoint x="1100" y="80" as="sourcePoint" />
            <mxPoint x="1070" y="173" as="targetPoint" />
            <mxPoint as="offset" />
          </mxGeometry>
        </mxCell>
        <mxCell id="xERo2qP1K6_lj_SJqDYF-156" value="&lt;font style=&quot;font-size: 21px;&quot;&gt;SUM ProbsW&lt;/font&gt;" style="rounded=0;whiteSpace=wrap;html=1;fillColor=#f5f5f5;fontColor=#333333;strokeColor=#666666;" vertex="1" parent="1">
          <mxGeometry x="1245" y="290" width="135" height="57" as="geometry" />
        </mxCell>
        <mxCell id="xERo2qP1K6_lj_SJqDYF-157" value="" style="endArrow=classic;html=1;rounded=0;entryX=0;entryY=0;entryDx=0;entryDy=0;exitX=0.5;exitY=1;exitDx=0;exitDy=0;" edge="1" parent="1" source="xERo2qP1K6_lj_SJqDYF-138" target="xERo2qP1K6_lj_SJqDYF-156">
          <mxGeometry width="50" height="50" relative="1" as="geometry">
            <mxPoint x="930" y="310" as="sourcePoint" />
            <mxPoint x="980" y="260" as="targetPoint" />
          </mxGeometry>
        </mxCell>
        <mxCell id="xERo2qP1K6_lj_SJqDYF-159" value="" style="endArrow=classic;html=1;rounded=0;entryX=1;entryY=0;entryDx=0;entryDy=0;exitX=0.5;exitY=1;exitDx=0;exitDy=0;" edge="1" parent="1" source="xERo2qP1K6_lj_SJqDYF-136" target="xERo2qP1K6_lj_SJqDYF-156">
          <mxGeometry width="50" height="50" relative="1" as="geometry">
            <mxPoint x="977" y="230" as="sourcePoint" />
            <mxPoint x="1255" y="300" as="targetPoint" />
          </mxGeometry>
        </mxCell>
        <mxCell id="xERo2qP1K6_lj_SJqDYF-160" value="" style="endArrow=classic;html=1;rounded=0;entryX=0.17;entryY=-0.053;entryDx=0;entryDy=0;exitX=0.5;exitY=1;exitDx=0;exitDy=0;entryPerimeter=0;" edge="1" parent="1" source="xERo2qP1K6_lj_SJqDYF-140" target="xERo2qP1K6_lj_SJqDYF-156">
          <mxGeometry width="50" height="50" relative="1" as="geometry">
            <mxPoint x="930" y="310" as="sourcePoint" />
            <mxPoint x="980" y="260" as="targetPoint" />
          </mxGeometry>
        </mxCell>
        <mxCell id="xERo2qP1K6_lj_SJqDYF-161" value="" style="endArrow=classic;html=1;rounded=0;entryX=0.877;entryY=-0.053;entryDx=0;entryDy=0;entryPerimeter=0;exitX=0.5;exitY=1;exitDx=0;exitDy=0;" edge="1" parent="1" source="xERo2qP1K6_lj_SJqDYF-137" target="xERo2qP1K6_lj_SJqDYF-156">
          <mxGeometry width="50" height="50" relative="1" as="geometry">
            <mxPoint x="930" y="310" as="sourcePoint" />
            <mxPoint x="980" y="260" as="targetPoint" />
          </mxGeometry>
        </mxCell>
        <mxCell id="xERo2qP1K6_lj_SJqDYF-162" value="" style="endArrow=classic;html=1;rounded=0;entryX=0.675;entryY=0.008;entryDx=0;entryDy=0;entryPerimeter=0;exitX=0.5;exitY=1;exitDx=0;exitDy=0;" edge="1" parent="1" source="xERo2qP1K6_lj_SJqDYF-135" target="xERo2qP1K6_lj_SJqDYF-156">
          <mxGeometry width="50" height="50" relative="1" as="geometry">
            <mxPoint x="1300" y="310" as="sourcePoint" />
            <mxPoint x="1350" y="260" as="targetPoint" />
          </mxGeometry>
        </mxCell>
        <mxCell id="xERo2qP1K6_lj_SJqDYF-163" value="" style="endArrow=classic;html=1;rounded=0;exitX=0.5;exitY=1;exitDx=0;exitDy=0;" edge="1" parent="1" source="xERo2qP1K6_lj_SJqDYF-139">
          <mxGeometry width="50" height="50" relative="1" as="geometry">
            <mxPoint x="1300" y="310" as="sourcePoint" />
            <mxPoint x="1301" y="290" as="targetPoint" />
          </mxGeometry>
        </mxCell>
        <mxCell id="xERo2qP1K6_lj_SJqDYF-164" value="&lt;font style=&quot;font-size: 21px;&quot;&gt;SUM ProbsW / SUM Macro&lt;/font&gt;" style="rounded=0;whiteSpace=wrap;html=1;fillColor=#f5f5f5;fontColor=#333333;strokeColor=#666666;" vertex="1" parent="1">
          <mxGeometry x="1172.5" y="410" width="280" height="57" as="geometry" />
        </mxCell>
        <mxCell id="xERo2qP1K6_lj_SJqDYF-165" value="" style="endArrow=classic;html=1;rounded=0;entryX=0.911;entryY=-0.043;entryDx=0;entryDy=0;entryPerimeter=0;exitX=0.75;exitY=1;exitDx=0;exitDy=0;" edge="1" parent="1" source="xERo2qP1K6_lj_SJqDYF-115" target="xERo2qP1K6_lj_SJqDYF-164">
          <mxGeometry width="50" height="50" relative="1" as="geometry">
            <mxPoint x="1000" y="400" as="sourcePoint" />
            <mxPoint x="1050" y="350" as="targetPoint" />
            <Array as="points">
              <mxPoint x="1428" y="310" />
            </Array>
          </mxGeometry>
        </mxCell>
        <mxCell id="xERo2qP1K6_lj_SJqDYF-166" value="" style="endArrow=classic;html=1;rounded=0;entryX=0.5;entryY=0;entryDx=0;entryDy=0;exitX=0.5;exitY=1;exitDx=0;exitDy=0;" edge="1" parent="1" source="xERo2qP1K6_lj_SJqDYF-156" target="xERo2qP1K6_lj_SJqDYF-164">
          <mxGeometry width="50" height="50" relative="1" as="geometry">
            <mxPoint x="1313" y="350" as="sourcePoint" />
            <mxPoint x="1050" y="350" as="targetPoint" />
          </mxGeometry>
        </mxCell>
        <mxCell id="xERo2qP1K6_lj_SJqDYF-168" value="" style="endArrow=classic;html=1;rounded=0;exitX=0.5;exitY=1;exitDx=0;exitDy=0;" edge="1" parent="1" source="xERo2qP1K6_lj_SJqDYF-164" target="xERo2qP1K6_lj_SJqDYF-128">
          <mxGeometry width="50" height="50" relative="1" as="geometry">
            <mxPoint x="1323" y="357" as="sourcePoint" />
            <mxPoint x="1323" y="420" as="targetPoint" />
          </mxGeometry>
        </mxCell>
      </root>
    </mxGraphModel>
  </diagram>
</mxfile>
